<?xml version="1.0" standalone="no"?>
<!DOCTYPE svg PUBLIC "-//W3C//DTD SVG 20010904//EN"
 "http://www.w3.org/TR/2001/REC-SVG-20010904/DTD/svg10.dtd">
<svg version="1.0" xmlns="http://www.w3.org/2000/svg"
 width="256.000000pt" height="256.000000pt" viewBox="0 0 256.000000 256.000000"
 preserveAspectRatio="xMidYMid meet">
<metadata>
Created by potrace 1.12, written by Peter Selinger 2001-2015
</metadata>
<g transform="translate(0.000000,256.000000) scale(0.100000,-0.100000)"
fill="#000000" stroke="none">
<path d="M310 1675 c0 -40 57 -131 92 -146 41 -17 43 -26 13 -67 -20 -27 -15
-23 17 12 l44 49 25 -56 c25 -58 46 -80 26 -27 -6 16 -9 31 -6 34 3 3 50 -10
104 -29 55 -19 154 -51 220 -71 66 -20 125 -43 132 -51 9 -12 18 -12 55 -2
l43 12 -40 12 c-488 156 -633 209 -654 237 -9 12 -28 44 -43 72 -25 48 -27 49
-28 21z"/>
<path d="M2206 1680 c-4 -14 -22 -46 -39 -72 -30 -45 -37 -49 -147 -89 -97
-35 -198 -69 -525 -174 l-40 -12 35 -10 c19 -6 40 -6 46 -2 6 5 93 35 195 68
101 33 216 71 254 86 87 32 105 30 75 -8 -12 -15 -20 -30 -17 -33 2 -3 21 18
42 46 20 27 40 50 44 50 4 0 15 -23 25 -50 10 -28 22 -53 27 -56 9 -5 4 10
-24 75 -14 32 -13 35 20 83 18 28 36 61 39 74 8 33 -1 55 -10 24z"/>
<path d="M360 1653 c0 -40 52 -83 140 -114 158 -57 495 -166 568 -185 72 -18
94 -34 48 -34 -14 0 -37 -5 -51 -10 -14 -6 -56 -16 -93 -24 -37 -8 -79 -17
-93 -21 -21 -5 -32 -1 -53 22 l-26 28 0 -32 c0 -30 -2 -31 -62 -43 -199 -37
-336 -59 -361 -60 -32 0 -42 -18 -33 -56 7 -25 9 -26 54 -20 26 3 67 8 92 11
39 4 37 3 -15 -10 -113 -27 -148 -16 -148 45 0 16 -5 26 -10 23 -12 -7 -2 -79
13 -98 21 -25 69 -19 381 44 l86 17 27 -23 c22 -18 31 -21 47 -13 10 6 19 19
19 30 0 10 4 21 9 24 5 3 91 26 191 51 177 45 183 46 228 31 39 -12 188 -49
289 -71 14 -3 24 -15 28 -34 9 -40 33 -47 69 -20 30 22 30 22 115 6 347 -67
361 -69 385 -32 9 13 16 37 16 52 -1 28 -1 28 -18 -7 -11 -23 -25 -36 -41 -38
-27 -4 -322 49 -304 55 6 2 71 -7 144 -21 168 -33 177 -33 185 -1 9 37 -2 55
-33 55 -25 1 -162 23 -360 60 -61 12 -63 13 -63 43 l0 32 -24 -26 c-13 -15
-33 -26 -43 -25 -40 3 -263 61 -263 68 0 5 5 8 12 8 37 0 664 209 704 235 25
16 69 83 61 92 -3 3 -43 -10 -89 -27 -193 -76 -411 -152 -608 -213 -211 -65
-217 -66 -248 -56 -15 4 -94 29 -177 55 -82 25 -168 52 -190 60 -152 51 -284
98 -310 110 -16 7 -59 24 -95 38 -36 13 -73 27 -82 31 -14 5 -18 2 -18 -12z
m1062 -393 c248 -62 242 -59 248 -99 l5 -34 14 26 c16 31 34 33 106 13 58 -16
31 -20 -34 -5 -42 9 -46 8 -66 -17 -25 -32 -47 -25 -43 13 3 25 0 26 -192 74
l-195 49 -195 -48 c-193 -48 -195 -49 -192 -74 5 -39 -18 -46 -43 -14 -20 25
-24 26 -66 17 -65 -15 -92 -11 -34 5 74 20 94 18 105 -12 12 -31 32 -22 24 12
-8 30 -14 27 211 85 99 25 181 47 182 48 1 0 75 -17 165 -39z"/>
<path d="M2094 1464 c-21 -30 -42 -46 -77 -58 l-48 -17 45 -35 c32 -24 49 -46
57 -74 7 -22 15 -40 19 -40 4 0 20 18 35 40 18 25 40 43 64 51 54 17 56 25 14
53 -24 17 -45 43 -59 74 l-20 47 -30 -41z"/>
<path d="M440 1454 c-15 -23 -42 -44 -73 -58 l-50 -21 41 -29 c28 -19 47 -42
58 -72 9 -24 19 -44 23 -44 3 0 16 16 29 35 15 23 40 43 73 58 l51 22 -44 31
c-31 22 -48 42 -57 72 -8 23 -17 42 -20 42 -3 0 -17 -16 -31 -36z"/>
<path d="M2396 1464 c-25 -17 -58 -29 -88 -32 -26 -2 -48 -7 -48 -10 0 -3 11
-20 24 -37 18 -23 26 -47 27 -84 2 -28 4 -51 6 -51 3 0 24 14 48 30 33 23 55
30 90 30 l46 0 -30 43 c-20 30 -31 59 -33 91 l-3 46 -39 -26z"/>
<path d="M200 1450 c-35 -23 -56 -30 -94 -30 l-48 0 28 -37 c21 -27 30 -53 34
-90 l5 -53 45 30 c34 23 56 30 93 30 l48 0 -28 37 c-20 26 -29 52 -33 90 l-5
53 -45 -30z"/>
<path d="M2216 1415 c-3 -9 6 -23 24 -37 17 -12 30 -24 30 -28 0 -3 -25 -14
-55 -24 -45 -16 -60 -27 -87 -67 -18 -27 -36 -49 -39 -49 -4 0 -15 23 -25 51
-18 50 -37 69 -106 114 -26 16 -28 16 -28 1 0 -9 21 -31 46 -49 44 -31 81 -87
70 -105 -3 -6 4 -12 17 -16 45 -12 62 -6 78 27 9 20 31 40 60 54 66 33 79 31
79 -16 0 -80 15 -87 87 -41 35 22 59 30 93 30 25 0 55 7 66 15 17 13 13 14
-51 15 -64 0 -75 -3 -123 -35 l-52 -36 0 58 c0 49 -5 65 -32 105 -35 52 -43
56 -52 33z"/>
</g>
</svg>
